<?xml version="1.0" encoding="utf-8"?>
<!-- Generator: Adobe Illustrator 22.0.1, SVG Export Plug-In . SVG Version: 6.00 Build 0)  -->
<svg version="1.1" id="레이어_1" xmlns="http://www.w3.org/2000/svg" xmlns:xlink="http://www.w3.org/1999/xlink" x="0px"
	 y="0px" viewBox="0 0 70 93.5" enable-background="new 0 0 70 93.5" xml:space="preserve">
<g>
	<path fill="#FFFFFF" d="M69.7,46.3c0.2-1.1,0.3-2.3,0.3-3.5s-0.1-2.3-0.3-3.5h-3.3c-0.5-2.2-1.3-4.3-2.6-6.1l2.3-2.3
		c-1.3-1.9-3-3.6-4.9-4.9l-2.3,2.3c-1.8-1.2-3.9-2.1-6.1-2.6v-3.3c-1.1-0.2-2.3-0.3-3.5-0.3s-2.3,0.1-3.5,0.3v3.3
		c-2.2,0.5-4.3,1.3-6.1,2.6L37.4,26c-1.9,1.3-3.6,3-4.9,4.9l2.3,2.3c-1.2,1.8-2.1,3.9-2.6,6.1h-3.3c-0.2,1.1-0.3,2.3-0.3,3.5
		s0.1,2.3,0.3,3.5h3.3c0.5,2.2,1.3,4.3,2.6,6.1l-2.3,2.3c1.3,1.9,3,3.6,4.9,4.9l2.3-2.3c1.8,1.2,3.9,2.1,6.1,2.6v3.3
		c1.1,0.2,2.3,0.3,3.5,0.3s2.3-0.1,3.5-0.3v-3.3c2.2-0.5,4.3-1.3,6.1-2.6l2.3,2.3c1.9-1.3,3.6-3,4.9-4.9l-2.3-2.3
		c1.2-1.8,2.1-3.9,2.6-6.1H69.7z M49.3,52.1c-5.1,0-9.3-4.2-9.3-9.3s4.2-9.3,9.3-9.3s9.3,4.2,9.3,9.3S54.4,52.1,49.3,52.1z"/>
	<g>
		<path fill="#FFFFFF" d="M29.3,26.8c0-1.3-0.2-2.5-0.5-3.7l2.8-1.6c-0.7-2.1-1.8-4-3.3-5.7l-2.8,1.6c-1.7-1.8-3.9-3.1-6.4-3.7v-3.3
			c-1.1-0.2-2.1-0.3-3.3-0.3s-2.2,0.1-3.3,0.3v3.3c-2.5,0.6-4.7,1.9-6.4,3.7l-2.8-1.6c-1.4,1.6-2.6,3.5-3.3,5.7l2.8,1.6
			c-0.3,1.2-0.5,2.4-0.5,3.7c0,1.3,0.2,2.5,0.5,3.7L0,32.1c0.7,2.1,1.8,4,3.3,5.7l2.8-1.6c1.7,1.8,3.9,3.1,6.4,3.7v3.3
			c1.1,0.2,2.1,0.3,3.3,0.3s2.2-0.1,3.3-0.3v-3.3c2.5-0.6,4.7-1.9,6.4-3.7l2.8,1.6c1.4-1.6,2.6-3.5,3.3-5.7l-2.8-1.6
			C29.1,29.3,29.3,28,29.3,26.8z M15.8,32.1c-2.9,0-5.3-2.4-5.3-5.3s2.4-5.3,5.3-5.3s5.3,2.4,5.3,5.3S18.7,32.1,15.8,32.1z"/>
	</g>
	<g>
		<path fill="#FFFFFF" d="M24.1,83.4c-6.4,0-11.6-5.2-11.6-11.6s5.2-11.6,11.6-11.6s11.6,5.2,11.6,11.6S30.5,83.4,24.1,83.4z
			 M24.1,66.8c-2.8,0-5,2.3-5,5s2.3,5,5,5s5-2.3,5-5S26.9,66.8,24.1,66.8z"/>
	</g>
</g>
</svg>
