<?xml version="1.0" encoding="utf-8"?>
<!-- Generator: Adobe Illustrator 22.0.1, SVG Export Plug-In . SVG Version: 6.00 Build 0)  -->
<svg version="1.1" id="레이어_1" xmlns="http://www.w3.org/2000/svg" xmlns:xlink="http://www.w3.org/1999/xlink" x="0px"
	 y="0px" viewBox="0 0 70 93.5" enable-background="new 0 0 70 93.5" xml:space="preserve">
<g>
	<path fill="#FFFFFF" d="M0,27v39.3c0,2.4,1.9,4.3,4.3,4.3h61.5c2.3,0,4.2-1.9,4.2-4.2V27c0-2.3-1.9-4.2-4.2-4.2H4.2
		C1.9,22.8,0,24.7,0,27z M64.9,25.3L35,51.8L5.1,25.3H64.9z M65,68.2H5c-1.4,0-2.5-1.1-2.5-2.5V26.4L35,55.2l32.5-28.8v39.3
		C67.5,67,66.4,68.2,65,68.2z"/>
</g>
</svg>
