<?xml version="1.0" encoding="utf-8"?>
<!-- Generator: Adobe Illustrator 22.0.1, SVG Export Plug-In . SVG Version: 6.00 Build 0)  -->
<svg version="1.1" id="레이어_1" xmlns="http://www.w3.org/2000/svg" xmlns:xlink="http://www.w3.org/1999/xlink" x="0px"
	 y="0px" viewBox="0 0 70 93.5" style="enable-background:new 0 0 70 93.5;" xml:space="preserve">
<style type="text/css">
	.st0{fill:#FFFFFF;}
	.st1{fill:#353E43;}
</style>
<g>
	<path class="st0" d="M60.9,78H9.1c-5,0-9.1-4.1-9.1-9.1v-44c0-5,4.1-9.1,9.1-9.1h51.8c5,0,9.1,4.1,9.1,9.1v44
		C70,73.9,65.9,78,60.9,78z"/>
	<g>
		<path class="st1" d="M0.4,28.3v-3.7c0-4.6,3.8-8.4,8.4-8.4h52.3c4.6,0,8.4,3.8,8.4,8.4v3.7H0.4z"/>
		<path class="st0" d="M61.2,16.6c4.4,0,8,3.6,8,8v3.3H0.9v-3.3c0-4.4,3.6-8,8-8H61.2 M61.2,15.8H8.8c-4.9,0-8.8,4-8.8,8.8v4.2h70
			v-4.2C70,19.7,66,15.8,61.2,15.8L61.2,15.8z"/>
	</g>
</g>
<g>
	<polygon class="st1" points="9,53.2 26.1,62.1 26.1,55.8 16.4,51 26.1,46.3 26.1,40.1 9,48.9 	"/>
	<polygon class="st1" points="26.8,66.2 32.7,66.2 43.1,35.8 37.1,35.8 	"/>
	<polygon class="st1" points="43.8,40.1 43.8,46.3 53.5,51 43.8,55.8 43.8,62.1 60.9,53.2 60.9,48.9 	"/>
</g>
</svg>
