<?xml version="1.0" encoding="utf-8"?>
<!-- Generator: Adobe Illustrator 22.0.1, SVG Export Plug-In . SVG Version: 6.00 Build 0)  -->
<svg version="1.1" id="레이어_1" xmlns="http://www.w3.org/2000/svg" xmlns:xlink="http://www.w3.org/1999/xlink" x="0px"
	 y="0px" viewBox="0 0 70 93.5" enable-background="new 0 0 70 93.5" xml:space="preserve">
<g>
	<path fill="#FFFFFF" d="M39.3,69.6h-8.7c-8.1,0-10.4-5.3-12.5-10c-0.4-1-0.9-2.1-1.5-3.2c-0.8-1.6-4.6-7.1-5.9-8.9l-0.4-0.6
		c-4.1-5.9-5.9-13.2-5.1-20.4C6.8,12.8,17.8,1.8,31.5,0.2c2.3-0.3,4.8-0.3,7.1,0c13.6,1.6,24.6,12.6,26.2,26.2v0
		c0.8,7.2-1,14.5-5.1,20.4l-0.5,0.7c-1.4,2-5.1,7.3-5.9,8.9c-0.5,1.1-1,2.2-1.4,3.2C49.8,64.3,47.4,69.6,39.3,69.6z M35,7.4
		c-1,0-1.8,0-2.7,0.1C22,8.7,13.8,17,12.6,27.3c-0.6,5.5,0.7,10.9,3.8,15.4l0.4,0.6c2.8,4,5.5,8,6.4,9.9c0.6,1.2,1.1,2.4,1.6,3.5
		c2.1,4.9,2.7,5.6,5.8,5.6h8.7c3.1,0,3.6-0.8,5.8-5.6c0.5-1.1,1-2.3,1.6-3.5c0.9-1.8,3.6-5.8,6.4-9.8l0.4-0.6
		c3.1-4.5,4.5-9.9,3.8-15.4C56.2,17,48,8.7,37.7,7.5C36.8,7.4,36,7.4,35,7.4z"/>
</g>
<g>
	<path fill="#FFFFFF" d="M44.5,78.6H25.5c-2,0-3.7-1.6-3.7-3.7v0c0-2,1.6-3.7,3.7-3.7h19.1c2,0,3.7,1.6,3.7,3.7v0
		C48.2,77,46.6,78.6,44.5,78.6z"/>
</g>
<path fill="#FFFFFF" d="M44.4,80.3c2.2,0,3.8,2.2,3,4.3c-1.8,5.2-6.7,8.9-12.5,8.9s-10.7-3.7-12.5-8.9c-0.7-2.1,0.8-4.3,3-4.3H44.4z
	"/>
<g>
	<path fill="#66F792" d="M31.2,47.3c-0.9,0-1.8-0.6-2.2-1.5c-0.5-1.2,0-2.7,1.2-3.2c0.1-0.1,0.9-0.4,1.9-1.4
		c-1.6-2.5-3.1-5.8-3.7-10.3c-0.6-4.6,0.7-8.3,3.4-10.1c1.9-1.2,4.2-1.3,6.1-0.1c2.8,1.7,4.1,5.4,3.6,10.1
		c-0.5,4.5-1.8,7.9-3.3,10.3c1.1,1,1.9,1.5,2,1.5c1.2,0.6,1.7,2.1,1.1,3.3c-0.6,1.2-2.1,1.7-3.3,1.1c-0.1-0.1-1.4-0.7-2.9-2.1
		c-1.6,1.5-3,2.1-3.1,2.2C31.9,47.2,31.5,47.3,31.2,47.3z M35,24.7c-0.2,0-0.3,0.1-0.5,0.2c-0.9,0.6-1.6,2.5-1.2,5.4
		c0.3,2.6,1,4.7,1.9,6.4c0.7-1.7,1.3-3.8,1.6-6.4c0.3-3-0.4-4.9-1.3-5.5C35.3,24.8,35.1,24.7,35,24.7z"/>
</g>
</svg>
