<?xml version="1.0" encoding="utf-8"?>
<!-- Generator: Adobe Illustrator 22.0.1, SVG Export Plug-In . SVG Version: 6.00 Build 0)  -->
<svg version="1.1" id="레이어_1" xmlns="http://www.w3.org/2000/svg" xmlns:xlink="http://www.w3.org/1999/xlink" x="0px"
	 y="0px" viewBox="0 0 50 50" enable-background="new 0 0 50 50" xml:space="preserve">
<g>
	<polygon fill="#5BBCAA" points="41.7,13 8.3,13 25,27.8 	"/>
	<path fill="#353E43" d="M45.8,8.6H4.2C1.9,8.6,0,10.5,0,12.8v26.6c0,2.4,1.9,4.3,4.3,4.3h41.5c2.3,0,4.2-1.9,4.2-4.2V12.8
		C50,10.5,48.1,8.6,45.8,8.6z M41.7,13L25,27.8L8.3,13H41.7z M45.6,38.9c0,0.2-0.2,0.4-0.4,0.4H4.7c-0.2,0-0.3-0.2-0.3-0.3V15.4
		l19.7,17.5c0.3,0.2,0.6,0.3,0.9,0.3s0.6-0.1,0.9-0.3l19.7-17.5V38.9z"/>
</g>
</svg>
