<?xml version="1.0" encoding="utf-8"?>
<!-- Generator: Adobe Illustrator 22.0.1, SVG Export Plug-In . SVG Version: 6.00 Build 0)  -->
<svg version="1.1" id="레이어_1" xmlns="http://www.w3.org/2000/svg" xmlns:xlink="http://www.w3.org/1999/xlink" x="0px"
	 y="0px" viewBox="0 0 200 200" enable-background="new 0 0 200 200" xml:space="preserve">
<linearGradient id="SVGID_1_" gradientUnits="userSpaceOnUse" x1="48.7329" y1="56.394" x2="130.7529" y2="56.394">
	<stop  offset="0" style="stop-color:#359E9C"/>
	<stop  offset="1" style="stop-color:#FFBDBD"/>
</linearGradient>
<path fill="url(#SVGID_1_)" d="M108.2,28.3c-11.7,0-21.4,9.2-22.4,20.8c-0.1,0.7-0.1,1.3-0.1,2c0,8-6.5,14.5-14.5,14.5
	c-8,0-14.5-6.5-14.5-14.5v-2V6.8c0-2.2-1.8-4-4-4s-4,1.8-4,4v42.4v2v37.6c0,4.4,3.1,8,6.9,8s6.9-3.6,6.9-8V87c0-3,2.4-5.4,5.4-5.4
	s5.4,2.4,5.4,5.4l-0.1,12.8c0,5.6,4.6,10.2,10.2,10.2s10.2-4.6,10.2-10.2V51.2c0-8.1,6.6-14.9,14.5-14.9c8,0,14.5,6.5,14.5,14.5
	v40.7c0,2.2,1.8,4,4,4s4-1.8,4-4V50.8C130.8,38.4,120.7,28.3,108.2,28.3z"/>
<g>
	<path fill="#FFFFFF" d="M129.6,139.1l21.8,3.9l-25.1-49l-25.1,49l21.8-3.9v48c0,1.8,1.5,3.2,3.2,3.2c1.8,0,3.2-1.5,3.2-3.2V139.1z"
		/>
	<path d="M135.9,187.1v-40.5l14.8,2.6c2.3,0.4,4.6-0.5,6-2.4c1.4-1.9,1.6-4.3,0.5-6.4l-25.4-49.6c-1.1-2-3.1-3.3-5.4-3.3
		c-2.3,0-4.4,1.3-5.4,3.3l-25.4,49.6c-1.1,2.1-0.9,4.5,0.5,6.4c1.4,1.9,3.7,2.8,6,2.4l14.8-2.6v40.5c0,2.6,1.1,5,2.8,6.7
		c1.7,1.7,4.1,2.8,6.7,2.8C131.7,196.7,135.9,192.4,135.9,187.1z M126.4,190.4c-1.8,0-3.2-1.5-3.2-3.2v-48l-21.8,3.9l25.1-49
		l25.1,49l-21.8-3.9v48C129.6,188.9,128.2,190.4,126.4,190.4z"/>
</g>
<circle fill="#359E9C" cx="55.7" cy="110" r="7"/>
<circle fill="#359E9C" cx="55.7" cy="130.9" r="4.6"/>
</svg>
