<?xml version="1.0" encoding="utf-8"?>
<!-- Generator: Adobe Illustrator 22.0.1, SVG Export Plug-In . SVG Version: 6.00 Build 0)  -->
<svg version="1.1" id="레이어_1" xmlns="http://www.w3.org/2000/svg" xmlns:xlink="http://www.w3.org/1999/xlink" x="0px"
	 y="0px" viewBox="0 0 200 200" enable-background="new 0 0 200 200" xml:space="preserve">
<path fill="#FFFFFF" d="M173.3,52H26.7c-4,0-7.2,3.2-7.2,7.2v81.7c0,4,3.2,7.2,7.2,7.2H100h73.3c4,0,7.2-3.2,7.2-7.2V100V59.2
	C180.5,55.2,177.3,52,173.3,52z"/>
<path fill="#FFBDBD" d="M173.3,42H26.7c-9.5,0-17.2,7.7-17.2,17.2V114v10.4v16.4c0,9.5,7.7,17.2,17.2,17.2h16.4H100h73.3h16.9
	l0.1-15c0.1-0.7,0.2-1.4,0.2-2.2V100V59.2C190.5,49.7,182.8,42,173.3,42z M158.8,86.7L118.5,127l-61-61.1l-38,38.1V59.2
	c0-4,3.2-7.2,7.2-7.2h146.7c4,0,7.2,3.2,7.2,7.2V100v8.4L158.8,86.7z"/>
<g>
	<rect x="101.8" y="104" fill="#FFFFFF" width="98.2" height="63.1"/>
	<path fill="#359E9C" d="M176,104h-12v5h12V104L176,104z M152,104h-12v5h12V104L152,104z M128,104h-12v5h12V104L128,104z M106.8,104
		h-5v5l0,0c0,2.4,0,4.8,0,4.8h5V104L106.8,104z M106.8,125.8h-5v12h5V125.8L106.8,125.8z M106.8,149.8h-5v12h5V149.8L106.8,149.8z
		 M120.4,162.2h-12v5h12V162.2L120.4,162.2z M144.4,162.2h-12v5h12V162.2L144.4,162.2z M168.4,162.2h-12v5h12V162.2L168.4,162.2z
		 M192.4,162.2h-12v5h12V162.2L192.4,162.2z M200,150.8h-5v12h5V150.8L200,150.8z M200,126.8h-5v12h5V126.8L200,126.8z M200,104h-12
		v5h7v5.8h5V104L200,104z"/>
</g>
</svg>
