<?xml version="1.0" encoding="utf-8"?>
<!-- Generator: Adobe Illustrator 22.0.1, SVG Export Plug-In . SVG Version: 6.00 Build 0)  -->
<svg version="1.1" id="레이어_1" xmlns="http://www.w3.org/2000/svg" xmlns:xlink="http://www.w3.org/1999/xlink" x="0px"
	 y="0px" viewBox="0 0 200 200" enable-background="new 0 0 200 200" xml:space="preserve">
<path fill="#FFFFFF" d="M139.7,184.2H32.2C14.4,184.2,0,169.8,0,152V44.6c0-17.8,14.4-32.2,32.2-32.2h107.5
	c17.8,0,32.2,14.4,32.2,32.2V152C171.9,169.8,157.5,184.2,139.7,184.2z"/>
<g>
	<g>
		<path fill="#FFBDBD" d="M22.4,87.8l19.3,9.6v7.1l-27.2-14v-5.6l27.2-14v7.1l-19.3,9.5V87.8z"/>
		<path fill="#359E9C" d="M69.3,103.5h-0.2c-0.8,1.5-2,2.6-3.6,3.2c-1.6,0.6-3.3,0.9-5.2,0.9c-4,0-6.9-1.2-8.9-3.5
			c-2-2.3-2.9-5.5-2.9-9.7v-5.4c0-2.1,0.3-4,0.9-5.6c0.6-1.7,1.4-3.1,2.5-4.2c1.1-1.1,2.4-2,3.9-2.6c1.5-0.6,3.2-0.9,5.1-0.9
			c1.2,0,2.3,0.1,3.2,0.3c0.9,0.2,1.7,0.5,2.4,0.8c0.7,0.3,1.2,0.7,1.6,1.1c0.4,0.4,0.7,0.8,1,1.1V64.7H76v42.4h-6.7V103.5z
			 M55.4,93.3c0,2.6,0.5,4.7,1.6,6.1c1.1,1.4,2.6,2.2,4.7,2.2c1.2,0,2.2-0.2,3.1-0.6c0.9-0.4,1.7-0.9,2.3-1.6
			c0.6-0.7,1.1-1.5,1.4-2.4C68.8,96,69,95,69,94v-6.3c0-0.7-0.1-1.4-0.4-2.2c-0.3-0.7-0.7-1.4-1.3-2c-0.6-0.6-1.3-1.1-2.2-1.4
			c-0.9-0.4-1.9-0.6-3.2-0.6c-2.2,0-3.9,0.7-5,2.2s-1.6,3.5-1.6,6.1V93.3z"/>
		<path fill="#359E9C" d="M84.4,64h7.4v7.6h-7.4V64z M84.5,76.2h7.1v30.9h-7.1V76.2z"/>
		<path fill="#359E9C" d="M106.4,107.1L96.3,76.2h7.7l7,24.3h0.2l7.1-24.3h7.4l-10.1,30.9H106.4z"/>
		<path fill="#FFBDBD" d="M149.5,87.4l-19.3-9.5v-7.1l27.2,14v5.6l-27.2,14v-7.1l19.3-9.6V87.4z"/>
	</g>
	<g>
		<circle cx="104.9" cy="128.3" r="4.2"/>
		<circle cx="86" cy="128.3" r="4.2"/>
		<circle cx="67" cy="128.3" r="4.2"/>
	</g>
</g>
<rect x="-225.3" y="-166" fill="#359E9C" width="50.7" height="50.7"/>
<rect x="-122.3" y="-166" fill="#FFBDBD" width="50.7" height="50.7"/>
<g>
	<line fill="none" stroke="#CCCCCC" stroke-miterlimit="10" x1="189.6" y1="12.3" x2="189.6" y2="184.2"/>
	<g>
		<line fill="none" stroke="#CCCCCC" stroke-miterlimit="10" x1="179.2" y1="12.3" x2="200" y2="12.3"/>
		<line fill="none" stroke="#CCCCCC" stroke-miterlimit="10" x1="185.3" y1="41" x2="193.9" y2="41"/>
		<line fill="none" stroke="#CCCCCC" stroke-miterlimit="10" x1="185.3" y1="69.6" x2="193.9" y2="69.6"/>
		<line fill="none" stroke="#CCCCCC" stroke-miterlimit="10" x1="179.2" y1="98.3" x2="200" y2="98.3"/>
		<line fill="none" stroke="#CCCCCC" stroke-miterlimit="10" x1="185.3" y1="126.9" x2="193.9" y2="126.9"/>
		<line fill="none" stroke="#CCCCCC" stroke-miterlimit="10" x1="185.3" y1="155.6" x2="193.9" y2="155.6"/>
		<line fill="none" stroke="#CCCCCC" stroke-miterlimit="10" x1="179.2" y1="184.2" x2="200" y2="184.2"/>
	</g>
</g>
</svg>
