<?xml version="1.0" encoding="utf-8"?>
<!-- Generator: Adobe Illustrator 22.0.1, SVG Export Plug-In . SVG Version: 6.00 Build 0)  -->
<svg version="1.1" id="레이어_1" xmlns="http://www.w3.org/2000/svg" xmlns:xlink="http://www.w3.org/1999/xlink" x="0px"
	 y="0px" viewBox="0 0 200 200" enable-background="new 0 0 200 200" xml:space="preserve">
<g>
	<path fill="#359E9C" d="M167.4,57.9c-1.5-6.1-6.9-10.6-13.4-10.6H62.1c-6.5,0-12,4.5-13.4,10.6c-0.2,1-0.4,2.1-0.4,3.2
		c0,7.6,6.2,13.8,13.8,13.8H154c7.6,0,13.8-6.2,13.8-13.8C167.8,60,167.7,58.9,167.4,57.9z"/>
	<path fill="#FFBDBD" d="M130.2,0c-22,0-22,25.8-44.1,25.8c-22,0-22-25.8-44-25.8v57.9h0c1.6-9.6,9.9-17,20-17H154
		c10.1,0,18.4,7.4,20,17h0.3V25.8C152.2,25.8,152.2,0,130.2,0z"/>
	<path fill="#FFFFFF" d="M98.6,123v68.4c0,1.2,1,2.2,2.2,2.2h14.5c1.2,0,2.2-1,2.2-2.2V123c0-1.2-1-2.2-2.2-2.2h-14.5
		C99.6,120.8,98.6,121.7,98.6,123z"/>
	<path fill="#231815" d="M174,57.9c-1.6-9.6-9.9-17-20-17H62.1c-10.1,0-18.4,7.4-20,17h0h-1.8c-13.5,0-24.5,11-24.5,24.5
		s11,24.5,24.5,24.5h64.6v7.4h-4c-4.8,0-8.6,3.9-8.6,8.6v68.4c0,4.8,3.9,8.6,8.6,8.6h14.5c4.8,0,8.6-3.9,8.6-8.6V123
		c0-4.8-3.9-8.6-8.6-8.6h-4v-7.6c0-3.4-2.8-6.2-6.2-6.2H40.3c-10,0-18.1-8.1-18.1-18.1s8.1-18.1,18.1-18.1h1.9c1.6,9.6,9.9,17,20,17
		H154c11.2,0,20.2-9.1,20.2-20.2C174.3,60,174.2,58.9,174,57.9z M115.3,120.8c1.2,0,2.2,1,2.2,2.2v68.4c0,1.2-1,2.2-2.2,2.2h-14.5
		c-1.2,0-2.2-1-2.2-2.2V123c0-1.2,1-2.2,2.2-2.2H115.3z M154,74.9H62.1c-7.6,0-13.8-6.2-13.8-13.8c0-1.1,0.1-2.2,0.4-3.2
		c1.5-6.1,6.9-10.6,13.4-10.6H154c6.5,0,12,4.5,13.4,10.6c0.2,1,0.4,2.1,0.4,3.2C167.8,68.7,161.6,74.9,154,74.9z"/>
</g>
</svg>
