<?xml version="1.0" encoding="utf-8"?>
<!-- Generator: Adobe Illustrator 22.0.1, SVG Export Plug-In . SVG Version: 6.00 Build 0)  -->
<svg version="1.1" id="레이어_1" xmlns="http://www.w3.org/2000/svg" xmlns:xlink="http://www.w3.org/1999/xlink" x="0px"
	 y="0px" viewBox="0 0 200 200" enable-background="new 0 0 200 200" xml:space="preserve">
<g>
	<polygon fill="#FFFFFF" points="92.9,28.7 53.5,96.8 146.5,96.8 107.1,28.7 	"/>
	<path fill="#359E9C" d="M134.1,144.3h-10.4v-37.1H80.1v56.9H69.8v-56.9h-20v69.4c7.7,1.1,12.2,4.4,16.3,7.3
		c4.4,3.2,7.9,5.7,15.4,5.7c7.6,0,11-2.5,15.4-5.7c5-3.6,10.6-7.7,21.5-7.7s16.6,4.1,21.5,7.7c3.3,2.4,6,4.3,10.3,5.2v-82h-16.1
		V144.3z"/>
	<path fill="#231815" d="M105.2,18.3V0H94.8v18.3h-7.9l-47.5,82.3v86h5.2c7.6,0,11,2.5,15.4,5.7c5,3.6,10.6,7.7,21.5,7.7
		c10.9,0,16.6-4.1,21.5-7.7c4.4-3.2,7.9-5.7,15.4-5.7c7.6,0,11,2.5,15.4,5.7c5,3.6,10.6,7.7,21.5,7.7h5.2v-99.4l-47.5-82.3H105.2z
		 M150.3,189.1c-4.3-0.9-7-2.9-10.3-5.2c-5-3.6-10.6-7.7-21.5-7.7s-16.6,4.1-21.5,7.7c-4.4,3.2-7.9,5.7-15.4,5.7
		c-7.6,0-11-2.5-15.4-5.7c-4.1-3-8.7-6.3-16.3-7.3v-69.4h20v56.9h10.4v-56.9h43.6v37.1h10.4v-37.1h16.1V189.1z M53.5,96.8l39.3-68.2
		h14.2l39.3,68.2H53.5z"/>
</g>
</svg>
