<?xml version="1.0" encoding="utf-8"?>
<!-- Generator: Adobe Illustrator 22.0.1, SVG Export Plug-In . SVG Version: 6.00 Build 0)  -->
<svg version="1.1" id="레이어_1" xmlns="http://www.w3.org/2000/svg" xmlns:xlink="http://www.w3.org/1999/xlink" x="0px"
	 y="0px" viewBox="0 0 80 120" style="enable-background:new 0 0 80 120;" xml:space="preserve">
<style type="text/css">
	.st0{fill:#231815;}
</style>
<g>
	<path class="st0" d="M40,28.5c11,0,20,9,20,20v23c0,11-9,20-20,20c-11,0-20-9-20-20v-23C20,37.5,29,28.5,40,28.5 M40,25.5L40,25.5
		c-12.7,0-23,10.3-23,23v23c0,12.7,10.3,23,23,23h0c12.7,0,23-10.3,23-23v-23C63,35.8,52.7,25.5,40,25.5L40,25.5z"/>
</g>
<g>
	<polygon class="st0" points="33.9,10.3 31.8,8.2 40,0 48.2,8.2 46.1,10.3 40,4.2 	"/>
</g>
<g>
	<polygon class="st0" points="40,120 31.8,111.8 33.9,109.7 40,115.8 46.1,109.7 48.2,111.8 	"/>
</g>
</svg>
