<?xml version="1.0" encoding="utf-8"?>
<!-- Generator: Adobe Illustrator 22.0.1, SVG Export Plug-In . SVG Version: 6.00 Build 0)  -->
<svg version="1.1" id="레이어_1" xmlns="http://www.w3.org/2000/svg" xmlns:xlink="http://www.w3.org/1999/xlink" x="0px"
	 y="0px" viewBox="0 0 500 500" style="enable-background:new 0 0 500 500;" xml:space="preserve">
<style type="text/css">
	.st0{fill:#67CEC9;}
	.st1{fill:#FFFFFF;}
</style>
<g>
	<path class="st0" d="M198.6,122h1.2v51.6c0,27.1,22.1,49.2,49.2,49.2h152.4v-98.3H298.1V23.6h-99.6c-110,0-197.2,89.2-197.9,201.5
		H99C99.7,167.1,142.8,122,198.6,122z"/>
	<path class="st1" d="M401.3,23.6v51.8v48.9v98.3v26.7h-204V239v-13.8H99v250.4l250.7-0.9c82.7,0,149.9-67.3,149.9-149.9V23.6H401.3
		z M401.3,324.7c0,28.4-23.1,51.6-51.6,51.6H197.4v-43.8v-9h204v1.2L401.3,324.7L401.3,324.7z"/>
</g>
</svg>
