<?xml version="1.0" encoding="utf-8"?>
<!-- Generator: Adobe Illustrator 22.0.1, SVG Export Plug-In . SVG Version: 6.00 Build 0)  -->
<svg version="1.1" id="레이어_1" xmlns="http://www.w3.org/2000/svg" xmlns:xlink="http://www.w3.org/1999/xlink" x="0px"
	 y="0px" viewBox="0 0 50 50" enable-background="new 0 0 50 50" xml:space="preserve">
<g>
	<path fill="#353E43" d="M50,46.6c0,1.8-1.5,3.4-3.4,3.4H25C11.2,50,0,38.8,0,25v0c0-6.5,2.5-12.4,6.6-16.8C11.1,3.2,17.7,0,25,0
		l0,0c7.3,0,13.9,3.2,18.4,8.2C47.5,12.6,50,18.5,50,25V46.6z"/>
	<path fill="#5BBCAA" d="M21.1,20.6c0-0.1-0.1-0.2-0.2-0.2h-1.5c-0.1,0-0.2,0.1-0.2,0.2l-3.5,9.3c0,0.1,0,0.2,0,0.2
		c0,0.1,0.1,0.1,0.2,0.1h1.7c0.1,0,0.2-0.1,0.2-0.2l0.9-2.4h2.8l0.8,2.4c0,0.1,0.1,0.2,0.2,0.2h1.8c0.1,0,0.2,0,0.2-0.1
		c0-0.1,0.1-0.1,0-0.2L21.1,20.6z M19.3,26.1l0.5-1.6c0.1-0.2,0.1-0.3,0.2-0.4l0.1-0.3c0.1,0.2,0.1,0.4,0.2,0.7l0.5,1.6H19.3z"/>
	<path fill="#5BBCAA" d="M15.8,22v-1.4c0-0.1-0.1-0.2-0.2-0.2H8.5c-0.1,0-0.2,0.1-0.2,0.2V22c0,0.1,0.1,0.2,0.2,0.2H11V30
		c0,0.1,0.1,0.2,0.2,0.2h1.7c0.1,0,0.2-0.1,0.2-0.2v-7.7h2.5C15.7,22.3,15.8,22.2,15.8,22z"/>
	<path fill="#5BBCAA" d="M32.2,28.3h-4v-7.7c0-0.1-0.1-0.2-0.2-0.2h-1.7c-0.1,0-0.2,0.1-0.2,0.2V30c0,0.1,0.1,0.2,0.2,0.2h5.9
		c0.1,0,0.2-0.1,0.2-0.2v-1.4C32.4,28.4,32.3,28.3,32.2,28.3z"/>
	<path fill="#5BBCAA" d="M38.1,24.8l3.5-4c0.1-0.1,0.1-0.2,0-0.3c0-0.1-0.1-0.1-0.2-0.1h-1.9c-0.1,0-0.1,0-0.2,0.1L36,24.3v-3.6
		c0-0.1-0.1-0.2-0.2-0.2h-1.7c-0.1,0-0.2,0.1-0.2,0.2V30c0,0.1,0.1,0.2,0.2,0.2h1.7c0.1,0,0.2-0.1,0.2-0.2v-3l0.6-0.7l2.6,3.8
		c0,0.1,0.1,0.1,0.2,0.1h2.1c0.1,0,0.2-0.1,0.2-0.1c0-0.1,0-0.2,0-0.2L38.1,24.8z"/>
</g>
</svg>
